<svg aria-hidden="true" style="position: absolute; width: 0; height: 0; overflow: hidden;" version="1.1" xmlns="http://www.w3.org/2000/svg" xmlns:xlink="http://www.w3.org/1999/xlink">
<defs>
<symbol id="icon-business" viewBox="0 0 32 32">
<path fill="#232536" style="fill: var(--color2, #232536)" d="M17.374 2.552l-14.654-2.226c-0.68-0.106-1.374 0.080-1.894 0.52-0.52 0.454-0.826 1.106-0.826 1.786v28.093c0 0.734 0.6 1.334 1.334 1.334h4.334v-7c0-1.294 1.040-2.334 2.334-2.334h3.334c1.294 0 2.334 1.040 2.334 2.334v7h5.666v-27.199c-0.002-1.148-0.83-2.12-1.962-2.308zM7.334 19.726h-2c-0.552 0-1-0.448-1-1s0.448-1 1-1h2c0.552 0 1 0.448 1 1s-0.448 1-1 1zM7.334 15.726h-2c-0.552 0-1-0.448-1-1s0.448-1 1-1h2c0.552 0 1 0.448 1 1s-0.448 1-1 1zM7.334 11.726h-2c-0.552 0-1-0.448-1-1s0.448-1 1-1h2c0.552 0 1 0.448 1 1s-0.448 1-1 1zM7.334 7.726h-2c-0.552 0-1-0.448-1-1s0.448-1 1-1h2c0.552 0 1 0.448 1 1s-0.448 1-1 1zM14 19.726h-2c-0.552 0-1-0.448-1-1s0.448-1 1-1h2c0.552 0 1 0.448 1 1s-0.448 1-1 1zM14 15.726h-2c-0.552 0-1-0.448-1-1s0.448-1 1-1h2c0.552 0 1 0.448 1 1s-0.448 1-1 1zM14 11.726h-2c-0.552 0-1-0.448-1-1s0.448-1 1-1h2c0.552 0 1 0.448 1 1s-0.448 1-1 1zM14 7.726h-2c-0.552 0-1-0.448-1-1s0.448-1 1-1h2c0.552 0 1 0.448 1 1s-0.448 1-1 1z"></path>
<path fill="#ffd050" style="fill: var(--color1, #ffd050)" d="M30.16 14.516l-9.494-1.988v19.532h9c1.286 0 2.334-1.046 2.334-2.334v-12.93c0-1.102-0.752-2.040-1.84-2.28zM27 28.060h-2c-0.552 0-1-0.448-1-1s0.448-1 1-1h2c0.552 0 1 0.448 1 1s-0.448 1-1 1zM27 24.060h-2c-0.552 0-1-0.448-1-1s0.448-1 1-1h2c0.552 0 1 0.448 1 1s-0.448 1-1 1zM27 20.060h-2c-0.552 0-1-0.448-1-1s0.448-1 1-1h2c0.552 0 1 0.448 1 1s-0.448 1-1 1z"></path>
</symbol>
<symbol id="icon-economy" viewBox="0 0 31 32">
<path fill="#232536" style="fill: var(--color1, #232536)" d="M6.821 20.567h-3.445c-1.242 0-2.253 1.057-2.253 2.356v7.631c0 0.798 0.621 1.447 1.384 1.447h5.184c0.763 0 1.384-0.649 1.384-1.447v-7.631c0-1.299-1.011-2.356-2.253-2.356z"></path>
<path fill="#232536" style="fill: var(--color1, #232536)" d="M16.933 15.932h-3.445c-1.242 0-2.253 1.057-2.253 2.356v12.265c0 0.798 0.621 1.447 1.384 1.447h5.184c0.763 0 1.384-0.649 1.384-1.447v-12.265c0-1.299-1.011-2.356-2.253-2.356z"></path>
<path fill="#232536" style="fill: var(--color1, #232536)" d="M27.235 10.652h-3.445c-1.243 0-2.253 1.057-2.253 2.356v17.546c0 0.798 0.621 1.447 1.384 1.447h5.184c0.763 0 1.384-0.649 1.384-1.447v-17.546c0-1.299-1.011-2.356-2.253-2.356z"></path>
<path fill="#ffd050" style="fill: var(--color2, #ffd050)" d="M24.491 0.891c-0.421-0.623-1.107-0.952-1.834-0.882l-6.507 0.629c-0.727 0.070-1.343 0.526-1.648 1.219s-0.236 1.478 0.186 2.101l0.363 0.537-8.084 5.84c-0.573 0.424-0.954 1.056-1.072 1.779s0.040 1.452 0.445 2.051c0.405 0.599 1.010 0.997 1.702 1.121 0.15 0.027 0.3 0.040 0.449 0.040 0.537 0 1.060-0.172 1.508-0.502l8.089-5.844 0.375 0.554c0.384 0.567 0.987 0.892 1.641 0.892 0.064 0 0.128-0.003 0.193-0.009 0.727-0.070 1.343-0.526 1.648-1.219l2.732-6.206c0.305-0.693 0.236-1.479-0.186-2.101z"></path>
</symbol>
<symbol id="icon-fb" viewBox="0 0 32 32">
<path d="M32 16c0-8.837-7.163-16-16-16s-16 7.163-16 16c0 7.986 5.851 14.605 13.5 15.806v-11.181h-4.063v-4.625h4.063v-3.525c0-4.010 2.389-6.225 6.043-6.225 1.75 0 3.582 0.313 3.582 0.313v3.938h-2.017c-1.988 0-2.608 1.233-2.608 2.5v3h4.438l-0.709 4.625h-3.728v11.181c7.649-1.2 13.5-7.82 13.5-15.806z"></path>
</symbol>
<symbol id="icon-insta" viewBox="0 0 32 32">
<path d="M16 2.881c4.275 0 4.781 0.019 6.463 0.094 1.562 0.069 2.406 0.331 2.969 0.55 0.744 0.288 1.281 0.638 1.838 1.194 0.562 0.563 0.906 1.094 1.194 1.838 0.219 0.562 0.481 1.412 0.55 2.969 0.075 1.688 0.094 2.194 0.094 6.463 0 4.275-0.019 4.781-0.094 6.463-0.069 1.563-0.331 2.406-0.55 2.969-0.288 0.744-0.638 1.281-1.194 1.837-0.563 0.563-1.094 0.906-1.838 1.194-0.562 0.219-1.412 0.481-2.969 0.55-1.688 0.075-2.194 0.094-6.463 0.094-4.275 0-4.781-0.019-6.463-0.094-1.563-0.069-2.406-0.331-2.969-0.55-0.744-0.287-1.281-0.638-1.838-1.194-0.563-0.562-0.906-1.094-1.194-1.837-0.219-0.563-0.481-1.413-0.55-2.969-0.075-1.687-0.094-2.194-0.094-6.463 0-4.275 0.019-4.781 0.094-6.463 0.069-1.563 0.331-2.406 0.55-2.969 0.288-0.744 0.638-1.281 1.194-1.838 0.563-0.563 1.094-0.906 1.838-1.194 0.563-0.219 1.412-0.481 2.969-0.55 1.681-0.075 2.188-0.094 6.463-0.094zM16 0c-4.344 0-4.887 0.019-6.594 0.094-1.7 0.075-2.869 0.35-3.881 0.744-1.056 0.412-1.95 0.956-2.837 1.85-0.894 0.888-1.438 1.781-1.85 2.831-0.394 1.019-0.669 2.181-0.744 3.881-0.075 1.713-0.094 2.256-0.094 6.6s0.019 4.887 0.094 6.594c0.075 1.7 0.35 2.869 0.744 3.881 0.413 1.056 0.956 1.95 1.85 2.837 0.887 0.888 1.781 1.438 2.831 1.844 1.019 0.394 2.181 0.669 3.881 0.744 1.706 0.075 2.25 0.094 6.594 0.094s4.887-0.019 6.594-0.094c1.7-0.075 2.869-0.35 3.881-0.744 1.050-0.406 1.944-0.956 2.831-1.844s1.438-1.781 1.844-2.831c0.394-1.019 0.669-2.181 0.744-3.881 0.075-1.706 0.094-2.25 0.094-6.594s-0.019-4.888-0.094-6.594c-0.075-1.7-0.35-2.869-0.744-3.881-0.394-1.063-0.938-1.956-1.831-2.844-0.888-0.887-1.781-1.438-2.831-1.844-1.019-0.394-2.181-0.669-3.881-0.744-1.712-0.081-2.256-0.1-6.6-0.1z"></path>
<path d="M16 7.781c-4.537 0-8.219 3.681-8.219 8.219s3.681 8.219 8.219 8.219c4.537 0 8.219-3.681 8.219-8.219s-3.681-8.219-8.219-8.219zM16 21.331c-2.944 0-5.331-2.387-5.331-5.331s2.387-5.331 5.331-5.331c2.944 0 5.331 2.388 5.331 5.331s-2.387 5.331-5.331 5.331z"></path>
<path d="M26.463 7.457c0 1.063-0.863 1.919-1.919 1.919-1.063 0-1.919-0.863-1.919-1.919 0-1.063 0.863-1.919 1.919-1.919s1.919 0.862 1.919 1.919z"></path>
</symbol>
<symbol id="icon-linkedin" viewBox="0 0 32 32">
<path d="M29.631 0h-27.269c-1.306 0-2.362 1.031-2.362 2.306v27.381c0 1.275 1.056 2.312 2.362 2.312h27.269c1.306 0 2.369-1.037 2.369-2.306v-27.388c0-1.275-1.062-2.306-2.369-2.306zM9.494 27.269h-4.75v-15.275h4.75v15.275zM7.119 9.912c-1.525 0-2.756-1.231-2.756-2.75s1.231-2.75 2.756-2.75c1.519 0 2.75 1.231 2.75 2.75 0 1.512-1.231 2.75-2.75 2.75zM27.269 27.269h-4.744v-7.425c0-1.769-0.031-4.050-2.469-4.050-2.469 0-2.844 1.931-2.844 3.925v7.55h-4.738v-15.275h4.55v2.088h0.063c0.631-1.2 2.181-2.469 4.488-2.469 4.806 0 5.694 3.162 5.694 7.275v8.381z"></path>
</symbol>
<symbol id="icon-Logo" viewBox="0 0 154 32">
<path fill="#fff" style="fill: var(--color3, #fff)" d="M154.209 23.896v3.823h-3.207c-3.422-0.108-5.25-1.956-5.25-5.426v-8.731h-2.239v-3.354h2.239v-3.755h4.732v3.715h3.618v3.344h-3.618v8.311c0 1.124 0.225 2.024 1.955 2.024l1.77 0.049z"></path>
<path fill="#fff" style="fill: var(--color3, #fff)" d="M124.651 18.998v-0.254c-0.051-1.125 0.12-2.248 0.504-3.306s0.972-2.030 1.732-2.86c0.76-0.83 1.677-1.502 2.698-1.977s2.124-0.745 3.25-0.792c0.224 0 0.459 0 0.684 0 4.468 0 8.388 2.601 8.388 8.8v1.32h-12.417c0.127 2.855 1.672 4.468 4.273 4.468 2.239 0 3.285-0.978 3.588-2.405h4.469c-0.548 3.725-3.52 5.798-8.223 5.798-5.163-0.039-8.947-3.305-8.947-8.79zM137.255 16.934c-0.167-2.601-1.476-3.852-3.755-3.852s-3.588 1.408-3.911 3.852h7.666z"></path>
<path fill="#fff" style="fill: var(--color3, #fff)" d="M105.332 18.998v-0.254c-0.051-1.123 0.119-2.245 0.502-3.302s0.97-2.028 1.728-2.858c0.758-0.83 1.672-1.502 2.691-1.979s2.12-0.747 3.243-0.798c0.225 0 0.459 0 0.684 0 4.469 0 8.399 2.601 8.399 8.8v1.32h-12.408c0.127 2.855 1.672 4.468 4.273 4.468 2.239 0 3.285-0.978 3.587-2.405h4.469c-0.557 3.725-3.53 5.798-8.233 5.798-5.153-0.039-8.936-3.305-8.936-8.79zM117.935 16.934c-0.167-2.601-1.476-3.852-3.755-3.852-2.278 0-3.549 1.447-3.911 3.843l7.666 0.010z"></path>
<path fill="#fff" style="fill: var(--color3, #fff)" d="M78.22 10.168h5.006l3.060 11.596 3.354-11.596h3.911l3.031 11.596 3.227-11.596h4.586l-5.436 17.228h-4.693l-2.933-10.814-3.139 10.814h-4.752l-5.221-17.228z"></path>
<path fill="#fff" style="fill: var(--color3, #fff)" d="M62.31 21.979h4.468c0.205 1.555 0.978 2.444 3.031 2.444 1.838 0 2.689-0.694 2.689-1.877s-0.978-1.682-3.481-2.034c-4.586-0.694-6.355-2.014-6.355-5.378 0-3.588 3.285-5.368 6.844-5.368 3.823 0 6.707 1.388 7.118 5.348h-4.41c-0.028-0.306-0.117-0.604-0.26-0.875s-0.34-0.512-0.577-0.708c-0.237-0.196-0.511-0.342-0.805-0.431s-0.603-0.119-0.909-0.088h-0.147c-1.545 0-2.444 0.724-2.444 1.779s0.831 1.516 3.354 1.877c4.282 0.645 6.678 1.731 6.678 5.417s-2.708 5.661-7.245 5.661c-4.537 0-7.421-2.043-7.548-5.769z"></path>
<path fill="#fff" style="fill: var(--color3, #fff)" d="M43.323 10.168h4.732v2.728c0.533-1.001 1.343-1.828 2.333-2.383s2.118-0.813 3.25-0.746c3.354 0 5.788 2.044 5.788 6.707v10.96h-4.674v-10.276c0-2.337-0.909-3.451-3.021-3.451-0.446-0.039-0.896 0.011-1.323 0.146s-0.823 0.354-1.166 0.643c-0.343 0.289-0.625 0.643-0.83 1.041s-0.33 0.833-0.367 1.28c-0.025 0.208-0.025 0.418 0 0.626v9.953h-4.723v-17.228z"></path>
<path fill="#fff" style="fill: var(--color3, #fff)" d="M34.191 5.837c-0.017-0.472 0.106-0.938 0.354-1.34s0.61-0.721 1.039-0.917c0.43-0.196 0.908-0.26 1.374-0.185s0.899 0.288 1.244 0.61c0.345 0.322 0.587 0.739 0.695 1.199s0.077 0.941-0.088 1.383c-0.166 0.442-0.459 0.825-0.842 1.101s-0.84 0.431-1.312 0.447h-0.088c-0.293 0.019-0.587-0.021-0.864-0.116s-0.534-0.244-0.754-0.439c-0.22-0.194-0.399-0.43-0.528-0.694s-0.203-0.55-0.221-0.843c-0.008-0.068-0.011-0.137-0.010-0.205zM34.191 10.168h4.781v17.228h-4.762l-0.020-17.228z"></path>
<path fill="#fff" style="fill: var(--color3, #fff)" d="M16.172 3.852h15.116v4.175h-9.777v6.228h7.744v4.018h-7.753v9.122h-5.329v-23.544z"></path>
<path fill="#fff" style="fill: var(--color3, #fff)" d="M7.050 11.557c0 1.476 0 3.275-2.034 4.009 2.083 0.714 2.034 2.229 2.034 3.813v5.866c0 1.115 0.45 1.789 1.252 1.955 0.176 0.059 0.362 0.086 0.548 0.078h1.955v3.911h-3.227c-3.442 0-5.338-1.955-5.338-5.583v-6.942c-0.024-0.356-0.182-0.691-0.44-0.937s-0.601-0.386-0.958-0.393h-0.841v-3.432h0.841c0.364-0.005 0.713-0.15 0.973-0.405s0.413-0.6 0.425-0.964v-7.040c0-3.569 1.858-5.495 5.338-5.495h3.256v3.852h-1.955c-0.186 0.001-0.371 0.030-0.548 0.088-0.802 0.205-1.252 0.87-1.252 1.955l-0.029 5.661z"></path>
</symbol>
<symbol id="icon-Logo1" viewBox="0 0 160 32">
<path d="M24.447 14.083c-0.445 0.455-0.786 1.003-0.998 1.607s-0.291 1.247-0.23 1.885l-0.021-0.021c0.062 0.751-0.037 1.507-0.292 2.214s-0.659 1.351-1.184 1.883c-0.525 0.533-1.158 0.943-1.855 1.202s-1.441 0.36-2.181 0.297l0.021 0.021c-0.885-0.084-1.773 0.112-2.544 0.56s-1.388 1.127-1.765 1.943c-0.378 0.817-0.498 1.732-0.345 2.62s0.573 1.707 1.201 2.345c0.629 0.637 1.435 1.063 2.311 1.218s1.776 0.032 2.58-0.352 1.471-1.011 1.912-1.794c0.44-0.784 0.632-1.686 0.549-2.584l0.022 0.021c-0.063-0.751 0.037-1.507 0.292-2.214s0.659-1.351 1.184-1.883c0.525-0.533 1.158-0.943 1.855-1.202s1.441-0.36 2.181-0.297l-0.022-0.021c0.723 0.066 1.45-0.054 2.115-0.35s1.245-0.756 1.688-1.34c0.442-0.584 0.733-1.272 0.843-2s0.039-1.473-0.209-2.165c-0.248-0.692-0.664-1.31-1.21-1.796s-1.203-0.823-1.912-0.982c-0.708-0.159-1.445-0.134-2.141 0.074s-1.33 0.589-1.842 1.111h-0.003z"></path>
<path d="M15.785 20.36l-0.022-0.021c0.629 0.064 1.263-0.014 1.858-0.229s1.136-0.562 1.582-1.016c0.447-0.453 0.789-1.002 1.001-1.606s0.29-1.249 0.227-1.887l0.022 0.021c-0.062-0.751 0.037-1.507 0.292-2.214s0.659-1.351 1.184-1.883 1.158-0.943 1.855-1.202c0.697-0.259 1.441-0.36 2.181-0.297l-0.022-0.021c0.885 0.084 1.773-0.111 2.545-0.558s1.389-1.126 1.767-1.942 0.499-1.732 0.346-2.62c-0.153-0.889-0.572-1.708-1.201-2.346s-1.435-1.064-2.311-1.219c-0.875-0.155-1.776-0.033-2.581 0.351s-1.472 1.010-1.913 1.794-0.632 1.686-0.549 2.584l-0.021-0.023c0.063 0.751-0.037 1.507-0.292 2.215s-0.659 1.351-1.184 1.884c-0.525 0.533-1.158 0.943-1.855 1.202s-1.442 0.36-2.181 0.296l0.021 0.023c-0.629-0.064-1.263 0.014-1.858 0.229s-1.136 0.562-1.582 1.016-0.789 1.002-1.001 1.606c-0.213 0.604-0.29 1.249-0.227 1.887l-0.021-0.021c0.062 0.751-0.038 1.506-0.293 2.214s-0.659 1.35-1.184 1.883c-0.525 0.533-1.158 0.943-1.855 1.202s-1.441 0.36-2.181 0.297l0.021 0.021c-0.885-0.084-1.773 0.11-2.545 0.558s-1.389 1.126-1.767 1.942c-0.378 0.817-0.499 1.732-0.346 2.62s0.572 1.708 1.2 2.346c0.628 0.638 1.435 1.064 2.311 1.219s1.777 0.033 2.581-0.351 1.472-1.010 1.913-1.794c0.441-0.784 0.632-1.686 0.549-2.584l0.022 0.021c-0.062-0.751 0.037-1.507 0.292-2.214s0.659-1.351 1.184-1.883c0.525-0.533 1.158-0.943 1.855-1.202s1.441-0.36 2.181-0.297z"></path>
<path d="M7.914 17.967c0.445-0.454 0.786-1.003 0.998-1.607s0.29-1.247 0.229-1.885l0.022 0.021c-0.062-0.751 0.037-1.507 0.292-2.215s0.659-1.351 1.184-1.884c0.525-0.533 1.158-0.943 1.856-1.202s1.442-0.36 2.181-0.296l-0.022-0.021c0.884 0.084 1.773-0.111 2.544-0.558s1.388-1.125 1.766-1.942c0.378-0.816 0.498-1.731 0.346-2.619s-0.572-1.707-1.2-2.345c-0.628-0.638-1.435-1.063-2.31-1.219s-1.776-0.033-2.58 0.351c-0.804 0.384-1.472 1.010-1.912 1.793s-0.633 1.685-0.55 2.583l-0.021-0.021c0.062 0.751-0.037 1.507-0.292 2.214s-0.659 1.35-1.184 1.883c-0.525 0.533-1.158 0.943-1.855 1.202s-1.441 0.36-2.181 0.297l0.021 0.021c-0.723-0.066-1.45 0.055-2.114 0.35s-1.245 0.757-1.687 1.341c-0.442 0.584-0.732 1.272-0.843 2s-0.039 1.473 0.209 2.165c0.248 0.692 0.664 1.31 1.21 1.795s1.203 0.823 1.912 0.982c0.708 0.159 1.445 0.133 2.141-0.074s1.33-0.589 1.842-1.111h-0.002z"></path>
<path d="M44.285 6.076h3.487v17.231h-3.487v-17.231z"></path>
<path d="M49.748 17.407c-0.005-1.238 0.352-2.45 1.026-3.482s1.634-1.838 2.76-2.315c1.125-0.477 2.365-0.605 3.562-0.366s2.297 0.832 3.161 1.706c0.864 0.874 1.453 1.988 1.693 3.203s0.119 2.473-0.346 3.618-1.255 2.123-2.269 2.811c-1.014 0.689-2.206 1.056-3.425 1.056-0.81 0.009-1.613-0.145-2.363-0.455s-1.432-0.768-2.005-1.348c-0.574-0.58-1.028-1.27-1.335-2.031s-0.463-1.575-0.457-2.397zM58.582 17.407c-0.014-0.534-0.184-1.051-0.486-1.488s-0.725-0.773-1.215-0.967c-0.49-0.194-1.025-0.237-1.539-0.124s-0.983 0.378-1.35 0.761c-0.367 0.383-0.614 0.867-0.711 1.392s-0.040 1.067 0.165 1.559c0.205 0.492 0.547 0.912 0.986 1.207s0.953 0.453 1.478 0.452c0.36 0.010 0.718-0.056 1.052-0.194s0.636-0.344 0.887-0.607c0.251-0.262 0.446-0.574 0.573-0.917s0.182-0.708 0.162-1.073z"></path>
<path d="M75.969 11.506v11.207c0 3.965-3.046 5.642-6.137 5.642-1.088 0.083-2.178-0.14-3.15-0.645s-1.788-1.271-2.359-2.216l2.975-1.747c0.24 0.492 0.622 0.899 1.096 1.164s1.016 0.378 1.554 0.322c0.344 0.048 0.694 0.018 1.025-0.090s0.633-0.289 0.886-0.532c0.252-0.242 0.448-0.539 0.572-0.869s0.173-0.683 0.144-1.035v-1.079c-0.408 0.507-0.928 0.91-1.517 1.177s-1.232 0.389-1.877 0.358c-1.534-0.049-2.988-0.702-4.056-1.821s-1.665-2.616-1.665-4.174c0-1.558 0.597-3.055 1.665-4.174s2.522-1.772 4.056-1.821c0.644-0.031 1.287 0.091 1.877 0.357s1.109 0.67 1.517 1.177v-1.204l3.394 0.002zM72.576 17.17c0.023-0.571-0.122-1.135-0.417-1.621s-0.727-0.871-1.24-1.106c-0.513-0.235-1.083-0.308-1.637-0.211s-1.067 0.36-1.473 0.756c-0.406 0.396-0.686 0.905-0.803 1.464s-0.069 1.14 0.142 1.67c0.21 0.53 0.572 0.983 1.038 1.303s1.016 0.489 1.579 0.489c0.366 0.026 0.734-0.026 1.079-0.153s0.661-0.326 0.925-0.584c0.265-0.258 0.474-0.57 0.613-0.915s0.205-0.716 0.195-1.089z"></path>
<path d="M77.944 17.407c-0.005-1.238 0.352-2.45 1.026-3.482s1.634-1.838 2.76-2.315c1.125-0.477 2.365-0.605 3.561-0.366s2.297 0.832 3.161 1.706c0.864 0.874 1.453 1.988 1.693 3.203s0.119 2.473-0.346 3.618-1.255 2.123-2.269 2.811c-1.014 0.689-2.206 1.056-3.425 1.056-0.809 0.009-1.613-0.145-2.363-0.455s-1.432-0.768-2.005-1.348-1.028-1.27-1.335-2.031c-0.308-0.76-0.463-1.575-0.457-2.397zM86.778 17.407c-0.015-0.534-0.184-1.051-0.487-1.488s-0.725-0.773-1.215-0.967-1.025-0.237-1.539-0.124c-0.514 0.113-0.984 0.378-1.35 0.761s-0.614 0.867-0.711 1.392c-0.097 0.525-0.040 1.067 0.165 1.559s0.547 0.912 0.986 1.207c0.438 0.295 0.953 0.453 1.478 0.452 0.36 0.010 0.718-0.056 1.052-0.194s0.636-0.344 0.887-0.607c0.251-0.262 0.446-0.574 0.573-0.917s0.182-0.708 0.162-1.073z"></path>
<path d="M91.891 8.342c0-0.42 0.123-0.831 0.353-1.18s0.557-0.622 0.939-0.782c0.382-0.161 0.803-0.203 1.208-0.121s0.779 0.284 1.072 0.581c0.292 0.297 0.492 0.676 0.572 1.088s0.040 0.839-0.119 1.228c-0.158 0.388-0.426 0.72-0.77 0.953s-0.749 0.358-1.163 0.358c-0.552-0.006-1.082-0.231-1.473-0.628s-0.613-0.934-0.619-1.496zM92.243 11.505h3.489v11.803h-3.493l0.005-11.803z"></path>
<path d="M110.789 17.407c0.040 0.78-0.071 1.561-0.329 2.296s-0.657 1.413-1.173 1.992-1.141 1.049-1.835 1.382c-0.696 0.333-1.451 0.524-2.219 0.56-0.646 0.036-1.292-0.075-1.891-0.324-0.598-0.249-1.136-0.63-1.571-1.116v5.831h-3.488v-16.523h3.488v1.109c0.436-0.486 0.973-0.867 1.572-1.115 0.598-0.249 1.244-0.359 1.89-0.324 0.768 0.036 1.523 0.227 2.219 0.56 0.695 0.333 1.32 0.803 1.836 1.382s0.915 1.256 1.173 1.992c0.258 0.736 0.369 1.517 0.328 2.297zM107.302 17.407c-0.013-0.552-0.187-1.088-0.5-1.541-0.311-0.453-0.749-0.802-1.255-1.003-0.507-0.202-1.061-0.248-1.592-0.131s-1.019 0.389-1.399 0.785-0.637 0.896-0.738 1.439c-0.1 0.543-0.042 1.104 0.169 1.613 0.212 0.509 0.567 0.944 1.020 1.249s0.986 0.468 1.53 0.468c0.373 0.017 0.746-0.047 1.094-0.186s0.662-0.352 0.924-0.624c0.261-0.272 0.462-0.597 0.591-0.953s0.182-0.736 0.156-1.115z"></path>
<path d="M121.548 19.767c0 2.715-2.323 3.871-4.833 3.871-1.014 0.093-2.033-0.125-2.924-0.625s-1.614-1.261-2.074-2.184l3.020-1.747c0.123 0.426 0.385 0.797 0.744 1.050 0.36 0.253 0.793 0.374 1.229 0.342 0.837 0 1.255-0.26 1.255-0.731 0-1.299-5.719-0.614-5.719-4.697 0-2.574 2.14-3.871 4.557-3.871 0.909-0.029 1.809 0.19 2.606 0.634s1.462 1.097 1.926 1.891l-2.975 1.629c-0.131-0.309-0.348-0.572-0.625-0.757s-0.601-0.283-0.932-0.281c-0.604 0-0.977 0.238-0.977 0.661 0.004 1.346 5.722 0.448 5.722 4.815z"></path>
<path d="M134.289 11.505v11.803h-3.487v-1.11c-0.402 0.49-0.913 0.876-1.49 1.126-0.578 0.25-1.206 0.358-1.833 0.314-2.348 0-4.344-1.699-4.344-4.888v-7.245h3.487v6.726c-0.029 0.281 0.002 0.565 0.092 0.833s0.237 0.512 0.429 0.716c0.193 0.204 0.426 0.363 0.686 0.466 0.259 0.103 0.537 0.148 0.815 0.131 1.279 0 2.161-0.755 2.161-2.431v-6.438l3.484-0.004z"></path>
<path d="M154.283 16.061v7.246h-3.487v-6.94c0-1.18-0.559-1.935-1.674-1.935-1.162 0-1.814 0.826-1.814 2.219v6.656h-3.485v-6.94c0-1.18-0.559-1.935-1.675-1.935-1.163 0-1.813 0.826-1.813 2.219v6.656h-3.487v-11.803h3.487v1.085c0.362-0.481 0.836-0.863 1.381-1.11s1.14-0.352 1.734-0.305c0.597-0.030 1.191 0.098 1.724 0.371 0.534 0.273 0.989 0.681 1.321 1.186 0.386-0.528 0.898-0.947 1.488-1.22 0.589-0.272 1.237-0.388 1.882-0.337 2.669 0.001 4.418 1.936 4.418 4.887z"></path>
<path d="M157.234 11.432c1.429 0 2.588-1.176 2.588-2.628s-1.159-2.628-2.588-2.628c-1.428 0-2.588 1.176-2.588 2.628s1.16 2.628 2.588 2.628z"></path>
</symbol>

<symbol id="icon-Logo2" viewBox="0 0 136 32">
<path d="M32.934 7.806h3.119v15.162h-3.119v-15.162z"></path>
<path d="M37.797 17.774c0-1.091 0.321-2.157 0.922-3.064s1.455-1.613 2.455-2.029c0.999-0.416 2.098-0.523 3.158-0.308s2.032 0.743 2.794 1.517c0.762 0.774 1.279 1.758 1.486 2.829s0.094 2.179-0.323 3.185c-0.418 1.006-1.122 1.864-2.024 2.466s-1.96 0.919-3.041 0.913c-0.717 0.006-1.428-0.133-2.091-0.409s-1.265-0.681-1.77-1.194c-0.505-0.513-0.904-1.123-1.173-1.794s-0.403-1.389-0.393-2.112zM45.615 17.774c-0.012-0.47-0.162-0.926-0.429-1.311s-0.642-0.682-1.076-0.853c-0.434-0.171-0.909-0.21-1.364-0.111s-0.872 0.332-1.197 0.669c-0.325 0.337-0.545 0.763-0.632 1.226s-0.036 0.94 0.145 1.373c0.181 0.433 0.485 0.803 0.873 1.064s0.844 0.399 1.31 0.399c0.317 0.006 0.633-0.054 0.926-0.176s0.559-0.304 0.779-0.535c0.221-0.23 0.392-0.504 0.502-0.805s0.159-0.62 0.142-0.94h0.021z"></path>
<path d="M60.992 12.58v9.874c0 3.484-2.703 4.963-5.437 4.963-0.965 0.080-1.932-0.113-2.793-0.558s-1.583-1.124-2.083-1.96l2.63-1.532c0.213 0.434 0.552 0.791 0.972 1.026s0.9 0.334 1.378 0.286c0.304 0.038 0.613 0.007 0.904-0.089s0.557-0.257 0.78-0.469c0.222-0.212 0.396-0.472 0.507-0.76s0.159-0.597 0.138-0.906v-0.955c-0.363 0.444-0.823 0.797-1.345 1.030s-1.090 0.34-1.66 0.313c-1.379 0-2.701-0.553-3.676-1.537s-1.523-2.318-1.523-3.71c0-1.391 0.548-2.726 1.523-3.71s2.297-1.537 3.676-1.537c0.57-0.027 1.138 0.080 1.66 0.313s0.982 0.586 1.345 1.030v-1.049l3.005-0.063zM57.988 17.564c0.021-0.502-0.108-0.999-0.369-1.427s-0.643-0.767-1.097-0.973-0.958-0.272-1.449-0.187c-0.49 0.085-0.945 0.316-1.304 0.664s-0.608 0.796-0.713 1.287c-0.105 0.491-0.062 1.003 0.123 1.469s0.505 0.866 0.917 1.148c0.412 0.282 0.898 0.432 1.396 0.433 0.325 0.023 0.651-0.022 0.957-0.133s0.586-0.287 0.821-0.514c0.235-0.227 0.42-0.502 0.544-0.806s0.182-0.631 0.173-0.96z"></path>
<path d="M62.75 17.774c0-1.090 0.32-2.155 0.92-3.062s1.453-1.612 2.451-2.029c0.998-0.417 2.096-0.525 3.155-0.312s2.032 0.739 2.794 1.511c0.763 0.771 1.282 1.754 1.491 2.823s0.1 2.177-0.315 3.184-1.116 1.866-2.015 2.47c-0.899 0.604-1.955 0.925-3.035 0.923-0.718 0.007-1.431-0.131-2.095-0.405s-1.269-0.68-1.776-1.193-0.908-1.123-1.179-1.795c-0.271-0.671-0.406-1.391-0.397-2.116zM70.569 17.774c-0.012-0.471-0.162-0.927-0.43-1.313s-0.643-0.682-1.078-0.853c-0.435-0.171-0.91-0.209-1.366-0.109s-0.872 0.334-1.197 0.672-0.544 0.765-0.629 1.228c-0.085 0.463-0.033 0.941 0.149 1.374s0.488 0.802 0.878 1.061c0.39 0.259 0.847 0.396 1.313 0.394 0.317 0.006 0.632-0.054 0.926-0.176s0.559-0.304 0.779-0.535c0.221-0.23 0.392-0.504 0.502-0.804s0.159-0.62 0.142-0.94h0.010z"></path>
<path d="M75.090 9.8c0-0.369 0.109-0.73 0.312-1.038s0.492-0.547 0.831-0.688c0.338-0.141 0.71-0.178 1.069-0.106s0.689 0.25 0.948 0.511 0.435 0.594 0.507 0.956c0.071 0.362 0.035 0.738-0.105 1.079s-0.377 0.633-0.681 0.838c-0.304 0.205-0.662 0.315-1.028 0.315-0.489-0.005-0.957-0.204-1.302-0.553s-0.543-0.821-0.548-1.315zM75.391 12.58h3.119v10.388h-3.119v-10.388z"></path>
<path d="M91.859 17.773c0.035 0.691-0.066 1.382-0.297 2.033s-0.587 1.25-1.048 1.762c-0.46 0.512-1.018 0.927-1.638 1.221s-1.292 0.461-1.977 0.492c-0.581 0.039-1.163-0.055-1.703-0.275s-1.024-0.56-1.416-0.995v5.131h-3.119v-14.564h3.119v0.976c0.392-0.434 0.877-0.772 1.416-0.99s1.123-0.31 1.703-0.269c0.682 0.031 1.351 0.197 1.97 0.489s1.173 0.704 1.634 1.213 0.818 1.104 1.050 1.752c0.233 0.648 0.336 1.335 0.306 2.024zM88.74 17.773c-0.012-0.487-0.167-0.96-0.444-1.359s-0.665-0.707-1.115-0.884c-0.451-0.177-0.942-0.217-1.414-0.114s-0.904 0.345-1.24 0.695c-0.337 0.35-0.564 0.792-0.652 1.271s-0.035 0.974 0.154 1.423c0.189 0.449 0.505 0.831 0.909 1.099s0.876 0.41 1.359 0.408c0.331 0.014 0.661-0.043 0.968-0.166s0.586-0.311 0.817-0.551c0.231-0.24 0.409-0.526 0.522-0.84s0.16-0.649 0.136-0.982z"></path>
<path d="M101.351 19.852c0 2.392-2.079 3.41-4.283 3.41-0.899 0.082-1.802-0.111-2.591-0.552s-1.43-1.112-1.838-1.924l2.682-1.532c0.106 0.374 0.337 0.701 0.653 0.924s0.698 0.331 1.083 0.304c0.738 0 1.113-0.231 1.113-0.651 0-1.144-5.063-0.535-5.063-4.134 0-2.267 1.892-3.4 4.034-3.4 0.814-0.037 1.623 0.15 2.341 0.539s1.317 0.969 1.735 1.675l-2.683 1.427c-0.118-0.271-0.312-0.501-0.557-0.663s-0.533-0.249-0.825-0.25c-0.541 0-0.864 0.21-0.864 0.577 0 1.196 5.063 0.409 5.063 4.249z"></path>
<path d="M112.652 12.58v10.388h-3.119v-0.976c-0.354 0.432-0.804 0.774-1.314 0.998-0.508 0.224-1.063 0.324-1.618 0.293-2.079 0-3.857-1.5-3.857-4.302v-6.401h3.119v5.928c-0.024 0.248 0.005 0.498 0.085 0.734 0.081 0.235 0.212 0.45 0.382 0.63s0.379 0.32 0.609 0.41 0.477 0.13 0.722 0.115c1.124 0 1.913-0.671 1.913-2.099v-5.718h3.078z"></path>
<path d="M130.326 16.588v6.38h-3.119v-6.107c0-1.049-0.489-1.7-1.477-1.7s-1.611 0.724-1.611 1.952v5.855h-3.119v-6.107c0-1.049-0.488-1.7-1.477-1.7-0.987 0-1.611 0.724-1.611 1.952v5.855h-3.119v-10.388h3.119v0.955c0.323-0.422 0.745-0.756 1.228-0.972s1.011-0.308 1.538-0.266c0.527-0.028 1.053 0.083 1.525 0.322 0.471 0.239 0.874 0.598 1.167 1.042 0.342-0.463 0.796-0.831 1.318-1.070s1.095-0.34 1.666-0.294c2.433 0 3.972 1.7 3.972 4.291z"></path>
<path d="M14.355 5.078v-4.459h-13.931v30.639h13.931v-4.459c-2.854 0-5.591-1.144-7.609-3.181s-3.152-4.799-3.152-7.679c0-2.88 1.134-5.643 3.152-7.679s4.755-3.181 7.609-3.181z"></path>
<path d="M14.354 5.078v21.72c2.854 0 5.591-1.144 7.609-3.181s3.152-4.799 3.152-7.679c0-2.88-1.134-5.643-3.152-7.679s-4.755-3.181-7.609-3.181z"></path>
<path d="M132.946 12.518c1.263 0 2.287-1.034 2.287-2.308s-1.024-2.308-2.287-2.308c-1.264 0-2.288 1.034-2.288 2.308s1.024 2.308 2.288 2.308z"></path>
</symbol>
<!-- <symbol id="icon-Logo2" viewBox="0 0 136 32">
<path d="M32.934 7.806h3.119v15.162h-3.119v-15.162z"></path>
<path d="M37.797 17.774c0-1.091 0.321-2.157 0.922-3.064s1.455-1.613 2.455-2.029c0.999-0.416 2.098-0.523 3.158-0.308s2.032 0.743 2.794 1.517c0.762 0.774 1.279 1.758 1.486 2.829s0.094 2.179-0.323 3.185c-0.418 1.006-1.122 1.864-2.024 2.466s-1.96 0.919-3.041 0.913c-0.717 0.006-1.428-0.133-2.091-0.409s-1.265-0.681-1.77-1.194c-0.505-0.513-0.904-1.123-1.173-1.794s-0.403-1.389-0.393-2.112zM45.615 17.774c-0.012-0.47-0.162-0.926-0.429-1.311s-0.642-0.682-1.076-0.853c-0.434-0.171-0.909-0.21-1.364-0.111s-0.872 0.332-1.197 0.669c-0.325 0.337-0.545 0.763-0.632 1.226s-0.036 0.94 0.145 1.373c0.181 0.433 0.485 0.803 0.873 1.064s0.844 0.399 1.31 0.399c0.317 0.006 0.633-0.054 0.926-0.176s0.559-0.304 0.779-0.535c0.221-0.23 0.392-0.504 0.502-0.805s0.159-0.62 0.142-0.94h0.021z"></path>
<path d="M60.992 12.58v9.874c0 3.484-2.703 4.963-5.437 4.963-0.965 0.080-1.932-0.113-2.793-0.558s-1.583-1.124-2.083-1.96l2.63-1.532c0.213 0.434 0.552 0.791 0.972 1.026s0.9 0.334 1.378 0.286c0.304 0.038 0.613 0.007 0.904-0.089s0.557-0.257 0.78-0.469c0.222-0.212 0.396-0.472 0.507-0.76s0.159-0.597 0.138-0.906v-0.955c-0.363 0.444-0.823 0.797-1.345 1.030s-1.090 0.34-1.66 0.313c-1.379 0-2.701-0.553-3.676-1.537s-1.523-2.318-1.523-3.71c0-1.391 0.548-2.726 1.523-3.71s2.297-1.537 3.676-1.537c0.57-0.027 1.138 0.080 1.66 0.313s0.982 0.586 1.345 1.030v-1.049l3.005-0.063zM57.988 17.564c0.021-0.502-0.108-0.999-0.369-1.427s-0.643-0.767-1.097-0.973-0.958-0.272-1.449-0.187c-0.49 0.085-0.945 0.316-1.304 0.664s-0.608 0.796-0.713 1.287c-0.105 0.491-0.062 1.003 0.123 1.469s0.505 0.866 0.917 1.148c0.412 0.282 0.898 0.432 1.396 0.433 0.325 0.023 0.651-0.022 0.957-0.133s0.586-0.287 0.821-0.514c0.235-0.227 0.42-0.502 0.544-0.806s0.182-0.631 0.173-0.96z"></path>
<path d="M62.75 17.774c0-1.090 0.32-2.155 0.92-3.062s1.453-1.612 2.451-2.029c0.998-0.417 2.096-0.525 3.155-0.312s2.032 0.739 2.794 1.511c0.763 0.771 1.282 1.754 1.491 2.823s0.1 2.177-0.315 3.184-1.116 1.866-2.015 2.47c-0.899 0.604-1.955 0.925-3.035 0.923-0.718 0.007-1.431-0.131-2.095-0.405s-1.269-0.68-1.776-1.193-0.908-1.123-1.179-1.795c-0.271-0.671-0.406-1.391-0.397-2.116zM70.569 17.774c-0.012-0.471-0.162-0.927-0.43-1.313s-0.643-0.682-1.078-0.853c-0.435-0.171-0.91-0.209-1.366-0.109s-0.872 0.334-1.197 0.672c-0.325 0.338-0.544 0.765-0.629 1.228s-0.033 0.941 0.149 1.374c0.183 0.433 0.488 0.802 0.878 1.061s0.847 0.396 1.313 0.394c0.317 0.006 0.632-0.054 0.926-0.176s0.559-0.304 0.779-0.535c0.221-0.23 0.392-0.504 0.502-0.804s0.159-0.62 0.142-0.94h0.010z"></path>
<path d="M75.090 9.8c0-0.369 0.109-0.73 0.312-1.038s0.492-0.547 0.831-0.688c0.338-0.141 0.71-0.178 1.069-0.106s0.689 0.25 0.948 0.511 0.435 0.594 0.507 0.956c0.071 0.362 0.035 0.738-0.105 1.079s-0.377 0.633-0.681 0.838c-0.304 0.205-0.662 0.315-1.028 0.315-0.489-0.005-0.957-0.204-1.302-0.553s-0.543-0.821-0.548-1.315zM75.391 12.58h3.119v10.388h-3.119v-10.388z"></path>
<path d="M91.859 17.773c0.035 0.691-0.066 1.382-0.297 2.033s-0.587 1.25-1.048 1.762c-0.46 0.512-1.018 0.927-1.638 1.221s-1.292 0.461-1.977 0.492c-0.581 0.039-1.163-0.055-1.703-0.275s-1.024-0.56-1.416-0.995v5.131h-3.119v-14.564h3.119v0.976c0.392-0.434 0.877-0.772 1.416-0.99s1.123-0.31 1.703-0.269c0.682 0.031 1.351 0.197 1.969 0.489s1.173 0.704 1.634 1.213 0.818 1.104 1.050 1.752c0.233 0.648 0.336 1.335 0.306 2.024zM88.74 17.773c-0.012-0.487-0.167-0.96-0.444-1.359s-0.665-0.707-1.115-0.884c-0.451-0.177-0.942-0.217-1.414-0.114s-0.904 0.345-1.24 0.695c-0.337 0.35-0.564 0.792-0.652 1.271s-0.035 0.974 0.154 1.423c0.189 0.449 0.505 0.831 0.909 1.099s0.876 0.41 1.359 0.408c0.331 0.014 0.661-0.043 0.968-0.166s0.586-0.311 0.817-0.551c0.231-0.24 0.409-0.526 0.522-0.84s0.16-0.649 0.136-0.982z"></path>
<path d="M101.351 19.852c0 2.392-2.079 3.41-4.283 3.41-0.899 0.082-1.802-0.111-2.591-0.552s-1.43-1.112-1.838-1.924l2.682-1.532c0.106 0.374 0.337 0.701 0.653 0.924s0.698 0.331 1.083 0.304c0.738 0 1.113-0.231 1.113-0.651 0-1.144-5.063-0.535-5.063-4.134 0-2.267 1.892-3.4 4.034-3.4 0.814-0.037 1.623 0.15 2.341 0.539s1.317 0.969 1.735 1.675l-2.683 1.427c-0.118-0.271-0.312-0.501-0.557-0.663s-0.533-0.249-0.825-0.25c-0.541 0-0.864 0.21-0.864 0.577 0 1.196 5.063 0.409 5.063 4.249z"></path>
<path d="M112.652 12.58v10.388h-3.119v-0.976c-0.354 0.432-0.804 0.774-1.314 0.998-0.508 0.224-1.063 0.324-1.618 0.293-2.079 0-3.857-1.5-3.857-4.302v-6.401h3.119v5.928c-0.024 0.248 0.005 0.498 0.085 0.734 0.081 0.235 0.212 0.45 0.382 0.63 0.171 0.18 0.379 0.32 0.609 0.41s0.477 0.13 0.722 0.115c1.124 0 1.913-0.672 1.913-2.099v-5.718h3.078z"></path>
<path d="M130.326 16.588v6.38h-3.119v-6.107c0-1.049-0.489-1.7-1.477-1.7s-1.611 0.724-1.611 1.952v5.855h-3.119v-6.107c0-1.049-0.488-1.7-1.477-1.7-0.987 0-1.611 0.724-1.611 1.952v5.855h-3.119v-10.388h3.119v0.955c0.323-0.422 0.745-0.756 1.228-0.972s1.011-0.308 1.538-0.266c0.527-0.028 1.053 0.083 1.525 0.322 0.471 0.239 0.874 0.598 1.167 1.042 0.342-0.463 0.796-0.831 1.318-1.070s1.095-0.34 1.666-0.294c2.433 0 3.972 1.7 3.972 4.291z"></path>
<path d="M14.355 5.078v-4.459h-13.931v30.639h13.931v-4.459c-2.854 0-5.591-1.144-7.609-3.181s-3.152-4.799-3.152-7.679c0-2.88 1.134-5.643 3.152-7.679s4.755-3.181 7.609-3.181z"></path>
<path d="M14.354 5.078v21.72c2.854 0 5.591-1.144 7.609-3.181s3.152-4.799 3.152-7.679c0-2.88-1.134-5.643-3.152-7.679s-4.755-3.181-7.609-3.181z"></path>
<path d="M132.946 12.518c1.263 0 2.287-1.034 2.287-2.308s-1.024-2.308-2.287-2.308c-1.264 0-2.288 1.033-2.288 2.308s1.024 2.308 2.288 2.308z"></path>
</symbol> -->
<symbol id="icon-Logo3" viewBox="0 0 135 32">
<path d="M39.303 9.347h3.381v13.658h-3.381v-13.658zM44.025 17.848c0-3.378 2.074-5.393 5.275-5.393s5.275 2.015 5.275 5.393c0 3.378-2.029 5.405-5.275 5.405s-5.275-1.971-5.275-5.405zM51.182 17.848c0-1.858-0.733-2.95-1.882-2.95s-1.871 1.126-1.871 2.95c0 1.824 0.71 2.928 1.871 2.928s1.882-1.036 1.882-2.916v-0.011zM55.848 23.669h3.246c0.154 0.343 0.416 0.627 0.745 0.809s0.708 0.254 1.081 0.204c1.285 0 1.961-0.698 1.961-1.711v-1.892h-0.068c-0.269 0.58-0.706 1.066-1.255 1.395s-1.183 0.486-1.822 0.452c-2.468 0-4.102-1.881-4.102-5.112s1.555-5.27 4.148-5.27c0.659-0.026 1.31 0.15 1.866 0.504s0.99 0.87 1.245 1.477v-1.88h3.381v10.246c0 2.466-2.175 3.997-5.387 3.997-2.987 0-4.846-1.34-5.038-3.209v-0.011zM62.892 17.837c0-1.644-0.755-2.68-1.95-2.68s-1.927 1.025-1.927 2.68 0.721 2.59 1.927 2.59c1.206 0 1.95-0.912 1.95-2.578v-0.011zM67.547 17.837c0-3.378 2.074-5.393 5.275-5.393s5.286 2.015 5.286 5.393c0 3.378-2.029 5.405-5.286 5.405s-5.275-1.959-5.275-5.393v-0.011zM74.703 17.837c0-1.858-0.733-2.95-1.882-2.95s-1.814 1.137-1.814 2.973 0.71 2.928 1.86 2.928c1.15 0 1.837-1.047 1.837-2.928v-0.023zM79.392 10.191c-0.009-0.341 0.084-0.677 0.266-0.965s0.447-0.516 0.759-0.654 0.659-0.181 0.995-0.122c0.336 0.059 0.648 0.216 0.895 0.451s0.418 0.539 0.492 0.872c0.074 0.333 0.047 0.681-0.076 0.998s-0.339 0.592-0.619 0.787-0.612 0.303-0.953 0.31c-0.226 0.015-0.453-0.016-0.667-0.092s-0.409-0.196-0.574-0.351c-0.165-0.155-0.296-0.343-0.385-0.552s-0.134-0.433-0.132-0.66v-0.023zM79.392 12.668h3.381v10.336h-3.381v-10.336zM95.047 17.837c0 3.378-1.499 5.303-4.069 5.303-0.659 0.042-1.315-0.119-1.879-0.461s-1.010-0.85-1.277-1.453h-0.068v5.089h-3.381v-13.669h3.381v1.847h0.068c0.254-0.614 0.691-1.134 1.252-1.491s1.218-0.532 1.881-0.502c2.593 0.045 4.136 1.982 4.136 5.36l-0.044-0.023zM91.666 17.837c0-1.644-0.756-2.691-1.939-2.691s-1.939 1.058-1.95 2.691c-0.011 1.633 0.766 2.68 1.95 2.68s1.939-1.025 1.939-2.657v-0.023zM100.851 12.432c2.806 0 4.508 1.329 4.587 3.457h-3.077c0-0.732-0.608-1.194-1.544-1.194s-1.352 0.36-1.352 0.89c0 0.529 0.372 0.698 1.127 0.856l2.163 0.439c2.064 0.439 2.942 1.272 2.942 2.837 0 2.139-1.95 3.513-4.824 3.513s-4.756-1.374-4.902-3.479h3.257c0.102 0.766 0.711 1.216 1.702 1.216s1.443-0.326 1.443-0.867c0-0.541-0.316-0.653-1.127-0.822l-1.95-0.416c-2.018-0.417-3.077-1.486-3.077-3.063 0.023-2.027 1.838-3.344 4.632-3.344v-0.023zM116.979 22.982h-3.258v-1.925h-0.067c-0.179 0.646-0.574 1.212-1.119 1.604s-1.208 0.584-1.879 0.547c-0.514 0.029-1.027-0.052-1.507-0.238-0.479-0.186-0.914-0.473-1.272-0.842s-0.635-0.809-0.809-1.293c-0.174-0.484-0.241-0.999-0.199-1.512v-6.677h3.382v5.9c0 1.227 0.631 1.88 1.679 1.88 0.246 0.001 0.489-0.051 0.712-0.152 0.225-0.101 0.425-0.249 0.587-0.433s0.283-0.401 0.354-0.636c0.072-0.235 0.092-0.483 0.060-0.726v-5.833h3.382l-0.046 10.336zM118.613 12.646h3.269v1.993h0.067c0.18-0.638 0.566-1.198 1.098-1.594s1.181-0.603 1.844-0.591c0.675-0.054 1.345 0.148 1.878 0.565 0.532 0.417 0.888 1.020 0.996 1.687h0.068c0.204-0.674 0.627-1.262 1.203-1.67s1.27-0.613 1.975-0.582c0.459-0.015 0.918 0.066 1.344 0.239s0.811 0.434 1.13 0.765c0.319 0.331 0.565 0.726 0.721 1.158s0.219 0.893 0.186 1.351v7.037h-3.381v-6.137c0-1.126-0.508-1.644-1.454-1.644-0.211-0.002-0.421 0.042-0.613 0.127-0.193 0.086-0.365 0.212-0.505 0.37s-0.244 0.344-0.306 0.546c-0.062 0.202-0.080 0.414-0.053 0.623v6.114h-3.211v-6.182c0-1.036-0.507-1.599-1.432-1.599-0.213 0-0.424 0.045-0.619 0.133s-0.369 0.215-0.511 0.375c-0.141 0.16-0.247 0.347-0.311 0.551-0.063 0.204-0.083 0.418-0.058 0.63v6.091h-3.381l0.056-10.359z"></path>
<path d="M29.847 9.966c-0.574-1.31-1.333-2.531-2.254-3.626-1.362-1.666-3.062-3.025-4.988-3.988s-4.034-1.507-6.185-1.597c-2.151-0.090-4.297 0.276-6.297 1.075s-3.807 2.011-5.304 3.557-2.649 3.392-3.38 5.415c-0.731 2.023-1.025 4.178-0.863 6.323s0.778 4.231 1.805 6.122c1.028 1.89 2.444 3.542 4.157 4.846 1.099 0.853 2.313 1.547 3.607 2.061 1.813 0.742 3.754 1.125 5.714 1.126 4.045-0.009 7.922-1.62 10.781-4.48s4.465-6.736 4.468-10.777c0.003-2.085-0.427-4.147-1.262-6.058zM15.849 3.852c1.76-0 3.499 0.384 5.094 1.126-0.389 0.168-0.798 0.285-1.217 0.349-1.379 0.199-2.656 0.839-3.641 1.823s-1.625 2.26-1.825 3.638c-0.088 0.772-0.439 1.491-0.996 2.035s-1.284 0.879-2.059 0.949c-1.379 0.199-2.656 0.839-3.641 1.823s-1.625 2.26-1.825 3.638c-0.068 0.735-0.381 1.425-0.89 1.959-0.878-1.854-1.273-3.9-1.147-5.948s0.768-4.030 1.867-5.763c1.099-1.733 2.619-3.16 4.418-4.148s3.82-1.506 5.873-1.504l-0.011 0.023zM6.528 23.906c0.135-0.124 0.271-0.237 0.406-0.372 1.003-0.971 1.646-2.253 1.826-3.637 0.073-0.778 0.42-1.504 0.981-2.049 0.539-0.561 1.264-0.905 2.040-0.968 1.379-0.199 2.656-0.839 3.641-1.823s1.625-2.26 1.825-3.638c0.049-0.813 0.398-1.58 0.98-2.151 0.552-0.55 1.285-0.882 2.063-0.935 1.267-0.174 2.448-0.737 3.381-1.61 1.062 0.881 1.963 1.94 2.66 3.13-0.043 0.058-0.092 0.111-0.147 0.158-0.538 0.566-1.262 0.917-2.040 0.991-1.38 0.196-2.66 0.834-3.645 1.819s-1.625 2.263-1.821 3.642c-0.079 0.775-0.425 1.499-0.977 2.049s-1.278 0.892-2.055 0.969c-1.383 0.198-2.665 0.836-3.656 1.82s-1.638 2.261-1.844 3.641c-0.061 0.55-0.25 1.079-0.552 1.543-1.156-0.686-2.192-1.557-3.066-2.578zM15.849 28.252c-1.144 0.001-2.282-0.158-3.381-0.473 0.376-0.7 0.62-1.464 0.721-2.252 0.079-0.773 0.423-1.496 0.973-2.046s1.274-0.893 2.048-0.972c1.381-0.197 2.661-0.836 3.648-1.82s1.629-2.262 1.829-3.641c0.079-0.773 0.423-1.496 0.973-2.046s1.273-0.893 2.048-0.972c1.039-0.135 2.029-0.521 2.885-1.126 0.475 1.799 0.531 3.683 0.165 5.507s-1.147 3.541-2.281 5.017c-1.134 1.476-2.591 2.674-4.26 3.5s-3.505 1.26-5.367 1.267v0.056z"></path>
</symbol>
<symbol id="icon-Logo4" viewBox="0 0 153 32">
<path d="M49.372 25.492c-0.771 0.042-1.533-0.177-2.164-0.622-0.264-0.195-0.476-0.452-0.618-0.747s-0.21-0.621-0.198-0.949v-12.006c-0.006-0.051-0.001-0.102 0.016-0.151s0.044-0.092 0.080-0.129c0.036-0.036 0.080-0.064 0.129-0.080s0.1-0.022 0.151-0.016h2.177c0.246 0 0.363 0.13 0.363 0.376v11.073c0 0.492 0.22 0.738 0.674 0.738 0.192 0.008 0.385-0.014 0.57-0.065 0.259 0 0.402 0.078 0.415 0.311l0.194 1.619c0.009 0.047 0.008 0.096-0.003 0.143s-0.032 0.091-0.062 0.129c-0.029 0.038-0.067 0.069-0.109 0.092s-0.090 0.035-0.138 0.038c-0.477 0.157-0.975 0.24-1.477 0.246z"></path>
<path d="M61.621 24.107c-1.094 0.903-2.469 1.398-3.888 1.398s-2.794-0.494-3.888-1.398c-0.962-0.97-1.501-2.28-1.501-3.646s0.539-2.676 1.501-3.646c1.096-0.899 2.47-1.39 3.888-1.39s2.792 0.491 3.888 1.39c0.94 0.979 1.464 2.283 1.464 3.64s-0.525 2.66-1.464 3.639v0.013zM55.893 22.397c0.508 0.46 1.168 0.714 1.853 0.714s1.346-0.255 1.853-0.714c0.46-0.528 0.713-1.204 0.713-1.904s-0.253-1.376-0.713-1.904c-0.508-0.46-1.168-0.714-1.853-0.714s-1.346 0.255-1.853 0.714c-0.46 0.528-0.713 1.204-0.713 1.904s0.253 1.376 0.713 1.904z"></path>
<path d="M75.075 15.753c0.246 0 0.363 0.13 0.363 0.376v9.286c0.023 0.627-0.095 1.251-0.344 1.826s-0.623 1.089-1.095 1.502c-1.048 0.893-2.396 1.356-3.772 1.295-1.243 0.044-2.469-0.295-3.512-0.971-0.446-0.293-0.826-0.673-1.118-1.119s-0.489-0.946-0.579-1.471c0-0.259 0-0.376 0.35-0.376h2.177c0.092 0.003 0.182 0.033 0.258 0.086s0.135 0.127 0.17 0.212c0.141 0.393 0.423 0.721 0.791 0.919 0.448 0.231 0.947 0.347 1.452 0.337 0.304 0.017 0.609-0.027 0.896-0.13s0.551-0.261 0.776-0.466c0.206-0.215 0.366-0.469 0.47-0.747s0.152-0.575 0.139-0.872v-0.816c-0.78 0.573-1.728 0.869-2.696 0.842-0.677 0.025-1.352-0.088-1.985-0.33s-1.209-0.61-1.696-1.081c-0.934-0.966-1.457-2.257-1.457-3.6s0.522-2.634 1.457-3.601c0.489-0.467 1.067-0.831 1.699-1.071s1.306-0.352 1.982-0.327c0.995-0.026 1.97 0.289 2.761 0.894v-0.207c-0.006-0.049-0.001-0.1 0.015-0.147s0.042-0.091 0.077-0.127c0.035-0.036 0.077-0.064 0.124-0.081s0.097-0.024 0.147-0.020l2.151-0.013zM70.046 23.161c0.334 0.010 0.666-0.053 0.973-0.185s0.581-0.33 0.803-0.579c0.431-0.556 0.665-1.239 0.665-1.943s-0.234-1.387-0.665-1.943c-0.221-0.246-0.493-0.441-0.798-0.571s-0.634-0.191-0.965-0.18c-0.338-0.011-0.674 0.052-0.985 0.184s-0.59 0.33-0.817 0.58c-0.477 0.532-0.728 1.229-0.7 1.943-0.023 0.707 0.222 1.396 0.687 1.93 0.228 0.249 0.506 0.447 0.817 0.579s0.647 0.195 0.984 0.185z"></path>
<path d="M86.621 24.106c-1.096 0.899-2.47 1.39-3.888 1.39s-2.792-0.491-3.888-1.39c-0.94-0.981-1.465-2.287-1.465-3.646s0.525-2.665 1.465-3.646c1.097-0.896 2.471-1.386 3.888-1.386s2.791 0.49 3.888 1.386c0.939 0.979 1.464 2.283 1.464 3.639s-0.525 2.66-1.464 3.639v0.013zM80.879 22.396c0.249 0.236 0.541 0.421 0.862 0.543s0.662 0.18 1.005 0.169c0.341 0.009 0.68-0.049 0.998-0.172s0.609-0.306 0.856-0.541c0.452-0.532 0.7-1.206 0.7-1.904s-0.248-1.372-0.7-1.904c-0.247-0.235-0.538-0.418-0.856-0.541s-0.657-0.181-0.998-0.172c-0.343-0.011-0.684 0.047-1.005 0.169s-0.613 0.307-0.862 0.543c-0.452 0.532-0.7 1.206-0.7 1.904s0.248 1.372 0.7 1.904z"></path>
<path d="M92.764 13.551c-0.343 0.3-0.782 0.465-1.238 0.465s-0.895-0.165-1.238-0.465c-0.155-0.146-0.279-0.323-0.364-0.519s-0.128-0.407-0.128-0.621c0-0.213 0.044-0.425 0.128-0.621s0.208-0.373 0.364-0.519c0.346-0.292 0.785-0.453 1.238-0.453s0.892 0.16 1.238 0.453c0.155 0.146 0.279 0.323 0.364 0.519s0.128 0.407 0.128 0.621c0 0.213-0.044 0.425-0.128 0.621s-0.208 0.373-0.364 0.519zM93.037 25.492c-0.77 0.038-1.532-0.181-2.165-0.622-0.26-0.198-0.468-0.456-0.608-0.751s-0.207-0.619-0.196-0.946v-7.045c-0.006-0.051-0.001-0.103 0.016-0.151s0.044-0.092 0.080-0.129c0.036-0.036 0.080-0.064 0.129-0.080s0.1-0.022 0.151-0.016h2.177c0.246 0 0.363 0.13 0.363 0.376v6.113c0 0.492 0.22 0.738 0.661 0.738 0.197 0.007 0.393-0.015 0.583-0.065 0.259 0 0.402 0.078 0.415 0.311l0.194 1.619c0.009 0.047 0.008 0.096-0.002 0.143s-0.032 0.091-0.061 0.129c-0.029 0.038-0.067 0.069-0.109 0.092s-0.090 0.035-0.138 0.038c-0.481 0.158-0.984 0.241-1.49 0.246z"></path>
<path d="M102.849 15.442c0.681-0.027 1.359 0.083 1.996 0.323s1.218 0.606 1.711 1.075c0.917 0.983 1.427 2.276 1.427 3.62s-0.51 2.637-1.427 3.62c-0.489 0.474-1.071 0.843-1.708 1.085s-1.317 0.354-1.999 0.326c-0.97 0.022-1.921-0.274-2.708-0.842v4.675c0 0.246-0.13 0.363-0.376 0.363h-2.177c-0.050 0.009-0.101 0.006-0.149-0.009s-0.092-0.041-0.128-0.077c-0.036-0.036-0.062-0.080-0.077-0.128s-0.018-0.099-0.009-0.149v-10.62c0.015-0.104 0.006-0.21-0.027-0.309s-0.089-0.19-0.163-0.265-0.165-0.13-0.265-0.163c-0.1-0.033-0.206-0.042-0.31-0.027h-0.428c-0.285 0-0.428-0.104-0.428-0.311v-1.528c-0.007-0.095 0.019-0.189 0.074-0.266s0.133-0.135 0.225-0.161c0.448-0.163 0.923-0.242 1.4-0.233 0.476-0.042 0.953 0.059 1.371 0.29s0.757 0.581 0.975 1.006c0.418-0.422 0.917-0.755 1.467-0.977 0.551-0.223 1.141-0.331 1.734-0.318zM100.828 22.397c0.231 0.241 0.508 0.433 0.816 0.565 0.307 0.131 0.638 0.199 0.972 0.199 0.335 0 0.666-0.068 0.973-0.199s0.585-0.323 0.816-0.565c0.487-0.543 0.743-1.253 0.713-1.982 0.034-0.729-0.223-1.441-0.713-1.982-0.231-0.241-0.509-0.433-0.816-0.565s-0.638-0.199-0.973-0.199c-0.334 0-0.665 0.068-0.972 0.199-0.308 0.131-0.585 0.323-0.816 0.565-0.472 0.55-0.717 1.258-0.687 1.982-0.026 0.723 0.219 1.43 0.687 1.982z"></path>
<path d="M114.098 25.492c-1.163 0.048-2.317-0.23-3.331-0.803-0.407-0.245-0.753-0.578-1.014-0.975-0.259-0.397-0.427-0.847-0.489-1.317 0-0.259 0.091-0.389 0.376-0.389h1.905c0.091 0.003 0.179 0.032 0.254 0.082s0.135 0.12 0.173 0.203c0.273 0.699 0.985 1.049 2.126 1.049 0.398 0.018 0.794-0.062 1.154-0.233 0.123-0.056 0.23-0.145 0.308-0.256 0.077-0.112 0.124-0.242 0.133-0.378 0-0.337-0.208-0.57-0.623-0.725-0.491-0.164-1.001-0.272-1.516-0.324-0.611-0.069-1.217-0.177-1.815-0.324-0.581-0.131-1.109-0.434-1.516-0.868-0.24-0.295-0.416-0.636-0.519-1.003-0.102-0.366-0.128-0.749-0.076-1.126s0.182-0.738 0.38-1.063c0.198-0.325 0.461-0.605 0.772-0.823 0.935-0.595 2.030-0.884 3.136-0.829 1.072-0.036 2.132 0.229 3.059 0.764 0.374 0.212 0.696 0.504 0.943 0.856 0.246 0.352 0.412 0.754 0.484 1.178 0 0.259-0.118 0.389-0.351 0.389h-1.918c-0.081 0.005-0.161-0.015-0.231-0.056s-0.124-0.103-0.158-0.177c-0.128-0.307-0.37-0.553-0.674-0.686-0.344-0.18-0.727-0.269-1.115-0.259-0.38-0.021-0.759 0.055-1.101 0.22-0.121 0.047-0.224 0.128-0.298 0.234s-0.115 0.232-0.116 0.361c0.008 0.177 0.073 0.347 0.185 0.485 0.111 0.137 0.264 0.235 0.436 0.28 0.498 0.187 1.015 0.318 1.542 0.389 0.607 0.080 1.208 0.192 1.802 0.337 0.582 0.131 1.109 0.433 1.517 0.868 0.218 0.239 0.386 0.519 0.495 0.824s0.156 0.628 0.14 0.951c0.011 0.448-0.094 0.891-0.305 1.286s-0.522 0.729-0.901 0.968c-0.968 0.621-2.103 0.933-3.253 0.894z"></path>
<path d="M132.257 24.845c0.007 0.046 0.005 0.093-0.005 0.138-0.011 0.045-0.032 0.088-0.060 0.125-0.027 0.037-0.062 0.069-0.102 0.093s-0.085 0.039-0.131 0.045c-0.473 0.154-0.967 0.237-1.464 0.246-0.493 0.051-0.991-0.026-1.445-0.223s-0.849-0.509-1.148-0.903c-0.915 0.787-2.099 1.19-3.304 1.127-0.561 0.026-1.12-0.066-1.642-0.269s-0.996-0.513-1.392-0.91c-0.392-0.416-0.697-0.907-0.895-1.443s-0.285-1.107-0.258-1.678v-5.064c0-0.246 0.116-0.376 0.363-0.376h2.178c0.245 0 0.362 0.13 0.362 0.376v4.675c-0.023 0.582 0.176 1.152 0.558 1.593 0.19 0.202 0.422 0.361 0.678 0.466 0.258 0.105 0.534 0.154 0.812 0.143 0.284 0.012 0.568-0.032 0.835-0.129s0.512-0.247 0.72-0.441c0.198-0.203 0.352-0.445 0.452-0.71s0.145-0.548 0.132-0.831v-4.766c0-0.246 0.116-0.376 0.362-0.376h2.204c0.246 0 0.362 0.13 0.362 0.376v6.1c0 0.505 0.221 0.751 0.649 0.751 0.2 0.008 0.402-0.014 0.596-0.065 0.049-0.014 0.1-0.016 0.151-0.007 0.050 0.009 0.097 0.029 0.138 0.059s0.075 0.069 0.099 0.114c0.024 0.045 0.038 0.095 0.040 0.145l0.155 1.619z"></path>
<path d="M152.851 24.845c0.011 0.046 0.012 0.095 0.003 0.142s-0.029 0.091-0.058 0.129-0.064 0.070-0.107 0.093c-0.042 0.023-0.089 0.035-0.136 0.038-0.482 0.157-0.985 0.239-1.491 0.246-0.77 0.040-1.532-0.179-2.165-0.622-0.273-0.19-0.495-0.444-0.647-0.74s-0.227-0.625-0.22-0.957v-3.044c0.026-0.581-0.168-1.15-0.546-1.593-0.181-0.202-0.405-0.362-0.657-0.467-0.25-0.105-0.521-0.154-0.794-0.141-0.245-0.009-0.489 0.037-0.713 0.136-0.225 0.099-0.424 0.247-0.582 0.434-0.343 0.434-0.518 0.976-0.493 1.528v4.779c0 0.246-0.117 0.376-0.363 0.376h-2.191c-0.050 0.006-0.102 0.001-0.151-0.016-0.048-0.017-0.092-0.044-0.128-0.080s-0.064-0.080-0.081-0.129c-0.017-0.048-0.022-0.1-0.016-0.151v-4.675c0.029-0.574-0.151-1.14-0.505-1.593-0.158-0.19-0.356-0.344-0.58-0.449s-0.469-0.16-0.716-0.16c-0.265-0.011-0.528 0.035-0.774 0.133s-0.467 0.247-0.651 0.437c-0.371 0.42-0.562 0.969-0.532 1.528v4.779c0.006 0.051 0.001 0.102-0.016 0.151s-0.044 0.093-0.081 0.129c-0.036 0.036-0.080 0.064-0.128 0.080s-0.1 0.022-0.151 0.016h-2.112c-0.247 0-0.364-0.13-0.364-0.376v-6.1c0.016-0.104 0.006-0.21-0.026-0.31s-0.090-0.19-0.164-0.264-0.165-0.13-0.265-0.163c-0.099-0.033-0.205-0.042-0.309-0.027h-0.428c-0.285 0-0.428-0.104-0.428-0.311v-1.528c-0.006-0.095 0.019-0.189 0.074-0.266 0.054-0.078 0.133-0.135 0.225-0.161 0.447-0.163 0.922-0.242 1.399-0.233 0.458-0.039 0.917 0.052 1.326 0.263 0.408 0.211 0.749 0.533 0.982 0.929 0.436-0.414 0.955-0.734 1.521-0.939s1.169-0.291 1.771-0.253c0.583-0.028 1.166 0.081 1.699 0.32s1.004 0.599 1.372 1.053c0.429-0.466 0.956-0.831 1.543-1.068s1.22-0.341 1.853-0.305c0.566-0.026 1.13 0.065 1.659 0.268s1.010 0.513 1.412 0.911c0.394 0.415 0.699 0.906 0.898 1.442s0.285 1.108 0.256 1.679v2.5c0 0.492 0.22 0.738 0.635 0.738 0.201 0.009 0.402-0.012 0.596-0.065 0.268 0 0.41 0.104 0.428 0.311l0.117 1.619z"></path>
<path d="M0.873 14.070c0.956-3.84 3.171-7.251 6.291-9.688s6.967-3.761 10.927-3.761c3.96 0 7.807 1.324 10.927 3.761s5.335 5.848 6.291 9.688h-1.555c-2.624-0.039-5.194 0.745-7.349 2.241-0.124 0.090-0.254 0.172-0.389 0.246h-0.181c-0.135-0.074-0.265-0.156-0.389-0.246-2.174-1.461-4.735-2.241-7.355-2.241s-5.181 0.78-7.355 2.241c-0.124 0.090-0.254 0.172-0.389 0.246h-0.181c-0.134-0.074-0.264-0.156-0.389-0.246-2.155-1.496-4.725-2.279-7.349-2.241h-1.555zM30.955 22.19c0.798-0.621 1.788-0.946 2.8-0.919h2.087v-4.157h-2.087c-1.782-0.021-3.523 0.533-4.964 1.58-0.811 0.598-1.792 0.92-2.8 0.92s-1.988-0.322-2.8-0.92c-1.478-1.028-3.235-1.579-5.035-1.579s-3.558 0.551-5.035 1.579c-0.811 0.598-1.792 0.92-2.8 0.92s-1.989-0.322-2.8-0.92c-1.459-1.061-3.225-1.616-5.029-1.58h-2.151v4.157h2.087c1.012-0.027 2.001 0.298 2.8 0.919 1.475 1.029 3.23 1.58 5.029 1.58s3.554-0.552 5.029-1.58c0.799-0.619 1.788-0.944 2.8-0.919 1.012-0.029 2.002 0.296 2.8 0.919 1.478 1.028 3.235 1.579 5.035 1.579s3.558-0.551 5.035-1.579zM30.955 29.624c0.798-0.621 1.788-0.946 2.8-0.919h2.087v-4.157h-2.087c-1.782-0.022-3.523 0.533-4.964 1.58-0.811 0.598-1.792 0.92-2.8 0.92s-1.988-0.322-2.8-0.92c-1.478-1.028-3.235-1.579-5.035-1.579s-3.558 0.551-5.035 1.579c-0.811 0.598-1.792 0.92-2.8 0.92s-1.989-0.322-2.8-0.92c-1.459-1.061-3.225-1.616-5.029-1.58h-2.151v4.157h2.087c1.012-0.027 2.001 0.298 2.8 0.919 1.475 1.029 3.23 1.58 5.029 1.58s3.554-0.551 5.029-1.58c0.799-0.619 1.788-0.944 2.8-0.919 1.012-0.029 2.002 0.296 2.8 0.919 1.478 1.028 3.235 1.579 5.035 1.579s3.558-0.551 5.035-1.579z"></path>
</symbol>
<symbol id="icon-Logo5" viewBox="0 0 136 32">
<path d="M39 9.9h3.42v13.867h-3.42v-13.867zM43.783 18.551c0-3.435 2.13-5.494 5.327-5.494s5.327 2.059 5.327 5.494c0 3.435-2.056 5.515-5.327 5.515s-5.327-2.006-5.327-5.515zM51.049 18.551c0-1.888-0.735-2.998-1.907-2.998s-1.896 1.067-1.896 2.998c0 1.931 0.724 2.987 1.896 2.987s1.928-1.056 1.928-2.976l-0.021-0.011zM55.8 24.482h3.303c0.15 0.356 0.413 0.653 0.748 0.846s0.723 0.27 1.106 0.221c1.31 0 1.992-0.704 1.992-1.749v-1.92h0.011c-0.282 0.598-0.739 1.096-1.309 1.429s-1.228 0.486-1.887 0.437c-2.504 0-4.165-1.909-4.165-5.195s1.587-5.334 4.261-5.334c0.675-0.036 1.346 0.138 1.918 0.499s1.019 0.891 1.278 1.517h-0.096v-1.931h3.388v10.39c0 2.507-2.216 4.075-5.476 4.075-2.962-0.011-4.858-1.365-5.050-3.275l-0.021-0.011zM62.959 18.551c0-1.675-0.767-2.731-1.981-2.731s-1.96 1.067-1.96 2.731c0 1.664 0.735 2.645 1.96 2.645s1.981-0.907 1.981-2.645zM67.7 18.551c0-3.435 2.131-5.494 5.326-5.494s5.327 2.059 5.327 5.494c0 3.435-2.067 5.515-5.327 5.515s-5.305-2.006-5.305-5.515h-0.021zM74.965 18.551c0-1.888-0.746-2.998-1.907-2.998s-1.896 1.067-1.896 2.998c0 1.931 0.724 2.987 1.896 2.987s1.928-1.056 1.928-2.976l-0.021-0.011zM79.737 10.775c-0.015-0.349 0.075-0.694 0.257-0.991s0.45-0.533 0.768-0.677c0.318-0.144 0.671-0.189 1.015-0.131s0.662 0.219 0.914 0.461c0.252 0.241 0.426 0.553 0.499 0.894s0.044 0.697-0.086 1.021c-0.13 0.324-0.353 0.602-0.642 0.797s-0.629 0.3-0.978 0.301c-0.223 0.006-0.445-0.033-0.652-0.114s-0.397-0.202-0.558-0.357c-0.161-0.155-0.289-0.34-0.377-0.545s-0.135-0.425-0.138-0.649l-0.021-0.011zM79.737 13.292h3.462v10.518h-3.409l-0.053-10.518zM95.653 18.551c0 3.424-1.534 5.408-4.144 5.408-0.668 0.041-1.333-0.124-1.905-0.473s-1.022-0.865-1.291-1.479h-0.064v5.184h-3.42v-13.867h3.398v1.877h0.065c0.259-0.626 0.706-1.156 1.278-1.519s1.242-0.54 1.917-0.508c2.685-0.021 4.229 1.952 4.229 5.387l-0.064-0.011zM92.17 18.551c0-1.664-0.778-2.742-1.982-2.742s-1.96 1.067-1.97 2.742c-0.011 1.675 0.766 2.731 1.97 2.731s2.046-0.992 2.046-2.72l-0.064-0.011zM101.491 13.047c2.866 0 4.645 1.355 4.666 3.531h-3.121c0-0.757-0.628-1.227-1.566-1.227s-1.385 0.363-1.385 0.907c0 0.544 0.394 0.715 1.183 0.875l2.194 0.448c2.131 0.448 2.983 1.302 2.983 2.891 0 2.133-1.971 3.584-4.9 3.584-2.93 0-4.837-1.408-4.975-3.552h3.313c0.096 0.779 0.713 1.237 1.715 1.237s1.47-0.32 1.47-0.885c0-0.565-0.319-0.661-1.14-0.832l-1.982-0.416c-2.056-0.437-3.132-1.515-3.132-3.125 0.065-2.091 1.854-3.424 4.741-3.424l-0.064-0.011zM117.897 23.799h-3.313v-1.974h-0.064c-0.185 0.658-0.589 1.234-1.145 1.631s-1.231 0.593-1.912 0.556c-0.516 0.017-1.028-0.076-1.505-0.271s-0.906-0.49-1.261-0.864c-0.356-0.374-0.628-0.818-0.799-1.305s-0.238-1.004-0.196-1.518v-6.752h3.42v6.016c0 1.237 0.65 1.909 1.715 1.909 0.25-0.002 0.496-0.057 0.723-0.163 0.226-0.105 0.428-0.258 0.591-0.448s0.282-0.413 0.352-0.653c0.068-0.241 0.085-0.493 0.049-0.741v-5.92h3.409l-0.064 10.496zM119.548 13.292h3.324v2.027h0.074c0.184-0.649 0.578-1.219 1.119-1.621 0.542-0.402 1.202-0.612 1.875-0.598 0.677-0.059 1.351 0.137 1.891 0.549 0.539 0.412 0.906 1.011 1.028 1.68h0.149c0.213-0.672 0.642-1.255 1.22-1.659s1.273-0.604 1.976-0.571c0.468-0.018 0.934 0.063 1.368 0.239s0.827 0.44 1.151 0.777c0.325 0.337 0.575 0.739 0.734 1.18s0.223 0.91 0.189 1.377v7.136h-3.442v-6.262c0-1.067-0.501-1.664-1.47-1.664-0.215-0.004-0.429 0.040-0.625 0.126s-0.373 0.215-0.515 0.376c-0.143 0.161-0.249 0.351-0.312 0.557-0.062 0.206-0.079 0.423-0.050 0.637v6.23h-3.26v-6.294c0-1.067-0.522-1.632-1.459-1.632-0.218-0.002-0.432 0.043-0.631 0.131s-0.377 0.218-0.52 0.381c-0.145 0.163-0.253 0.354-0.317 0.562s-0.083 0.427-0.056 0.643v6.208h-3.419l-0.022-10.518z"></path>
<path d="M32.236 10.806c0-2.123-0.64-4.197-1.837-5.949s-2.894-3.102-4.87-3.873c-1.976-0.77-4.138-0.925-6.203-0.444s-3.937 1.575-5.371 3.14h-13.295v28.097h28.071v-13.131c1.102-0.987 1.983-2.195 2.587-3.546s0.916-2.814 0.918-4.294zM26.835 10.806c0.002 1.017-0.297 2.012-0.86 2.86s-1.364 1.508-2.302 1.898-1.971 0.494-2.968 0.297c-0.997-0.197-1.913-0.686-2.632-1.405s-1.209-1.635-1.408-2.632c-0.199-0.998-0.098-2.032 0.29-2.972s1.047-1.744 1.891-2.309c0.845-0.565 1.838-0.867 2.854-0.867 1.36 0 2.664 0.54 3.627 1.502s1.505 2.267 1.508 3.629zM23.33 26.37h-17.269v-17.281h5.263c-0.102 0.567-0.155 1.141-0.16 1.717 0.003 2.797 1.114 5.479 3.089 7.457s4.653 3.090 7.447 3.093c0.546-0.003 1.091-0.049 1.63-0.139v5.152z"></path>
</symbol>
<symbol id="icon-shuttle" viewBox="0 0 32 32">
<path fill="#ffd050" style="fill: var(--color2, #ffd050)" d="M8.14 8.642l-2.772 0.214c-0.771 0.060-1.458 0.464-1.885 1.109l-3.197 4.836c-0.324 0.489-0.375 1.102-0.138 1.638s0.725 0.91 1.305 1l2.538 0.393c0.594-3.151 2.015-6.295 4.149-9.191z"></path>
<path fill="#ffd050" style="fill: var(--color2, #ffd050)" d="M14.168 28.009l0.393 2.538c0.090 0.58 0.464 1.068 1 1.305 0.223 0.099 0.459 0.147 0.695 0.147 0.33 0 0.658-0.096 0.944-0.285l4.836-3.197c0.645-0.427 1.050-1.114 1.109-1.885l0.214-2.772c-2.896 2.134-6.040 3.555-9.191 4.149z"></path>
<path fill="#ffd050" style="fill: var(--color2, #ffd050)" d="M13.213 26.249c0.088 0 0.177-0.007 0.265-0.022 1.32-0.221 2.593-0.593 3.807-1.079l-10.433-10.433c-0.487 1.214-0.859 2.486-1.079 3.807-0.087 0.52 0.088 1.051 0.461 1.424l5.821 5.821c0.31 0.31 0.728 0.483 1.159 0.483z"></path>
<path fill="#232536" style="fill: var(--color1, #232536)" d="M29.448 14.188c2.553-4.936 2.647-10.152 2.514-12.598-0.046-0.838-0.714-1.506-1.552-1.552-0.398-0.022-0.87-0.037-1.402-0.037-2.735 0-7.064 0.414-11.196 2.552-3.284 1.699-7.59 5.439-10.13 10.354 0.030 0.023 0.059 0.048 0.087 0.076l11.25 11.25c0.028 0.028 0.052 0.057 0.076 0.087 4.915-2.541 8.655-6.847 10.354-10.13zM18.606 6.765c1.827-1.828 4.801-1.828 6.629 0 0.885 0.885 1.373 2.062 1.373 3.315s-0.488 2.429-1.373 3.315c-0.914 0.914-2.114 1.371-3.314 1.371s-2.401-0.457-3.314-1.371c-0.885-0.885-1.373-2.062-1.373-3.315s0.488-2.429 1.373-3.315z"></path>
<path fill="#232536" style="fill: var(--color1, #232536)" d="M19.932 12.068c1.097 1.097 2.881 1.097 3.978 0 0.531-0.531 0.824-1.238 0.824-1.989s-0.292-1.457-0.824-1.989c-0.548-0.548-1.269-0.822-1.989-0.822s-1.441 0.274-1.989 0.822c-0.531 0.531-0.824 1.237-0.824 1.989s0.293 1.458 0.824 1.989z"></path>
<path fill="#ffd050" style="fill: var(--color2, #ffd050)" d="M0.957 26.371c0.24 0 0.48-0.092 0.663-0.275l3.061-3.061c0.366-0.366 0.366-0.96 0-1.326s-0.96-0.366-1.326 0l-3.061 3.061c-0.366 0.366-0.366 0.96 0 1.326 0.183 0.183 0.423 0.275 0.663 0.275z"></path>
<path fill="#ffd050" style="fill: var(--color2, #ffd050)" d="M7.485 24.515c-0.366-0.366-0.96-0.366-1.326 0l-5.885 5.885c-0.366 0.366-0.366 0.96 0 1.326 0.183 0.183 0.423 0.274 0.663 0.274s0.48-0.092 0.663-0.275l5.885-5.885c0.366-0.366 0.366-0.96 0-1.326z"></path>
<path fill="#ffd050" style="fill: var(--color2, #ffd050)" d="M8.963 27.319l-3.061 3.061c-0.366 0.366-0.366 0.96 0 1.326 0.183 0.183 0.423 0.275 0.663 0.275s0.48-0.092 0.663-0.275l3.061-3.061c0.366-0.366 0.366-0.96 0-1.326s-0.96-0.366-1.326 0z"></path>
</symbol>
<symbol id="icon-technology" viewBox="0 0 32 32">
<path fill="#232536" style="fill: var(--color1, #232536)" d="M20.69 9.375c0 1.034 0.841 1.875 1.875 1.875h5.574c-0.101-1.319-0.407-2.581-0.897-3.75h-4.677c-1.034 0-1.875 0.841-1.875 1.875z"></path>
<path fill="#ffd050" style="fill: var(--color2, #ffd050)" d="M8.503 32h11.25c0.518 0 0.937-0.419 0.937-0.937v-4.813h1.875v-6.094l-9.374-7.031h-8.438c-0.518 0-0.938 0.419-0.938 0.938 0 3.321 1.361 6.501 3.75 8.795v8.205c0 0.518 0.419 0.937 0.938 0.937z"></path>
<path fill="#232536" style="fill: var(--color1, #232536)" d="M16.003 0c-0.518 0-0.938 0.419-0.938 0.938v0.938h-3.923c-0.388-1.089-1.419-1.875-2.64-1.875-1.551 0-2.813 1.262-2.813 2.813s1.262 2.813 2.813 2.813c1.221 0 2.252-0.786 2.64-1.875h3.923v3.75h-9.548c-0.388-1.089-1.419-1.875-2.64-1.875-1.551 0-2.875 1.262-2.875 2.813s1.324 2.813 2.875 2.813c1.221 0 2.252-0.786 2.64-1.875h9.548v2.813l9 6.75c0.236 0.177 0.375 0.455 0.375 0.75v6.563h0.937c1.551 0 2.813-1.262 2.813-2.813v-4.687h2.875c0.346 0 0.664-0.19 0.827-0.495s0.145-0.675-0.047-0.962l-2.841-4.167h-6.439c-2.068 0-3.75-1.682-3.75-3.75s1.682-3.75 3.75-3.75h3.688c-2.169-3.376-5.947-5.625-10.25-5.625v0z"></path>
</symbol>
<symbol id="icon-twitter" viewBox="0 0 34 32">
<path d="M10.738 30.735c12.877 0 19.923-11.338 19.923-21.168 0-0.319-0.007-0.645-0.020-0.963 1.37-1.053 2.553-2.357 3.493-3.852-1.276 0.603-2.632 0.997-4.019 1.169 1.461-0.931 2.555-2.393 3.079-4.115-1.375 0.866-2.878 1.476-4.445 1.806-1.056-1.192-2.452-1.982-3.973-2.246s-3.081 0.011-4.44 0.783-2.44 1.999-3.078 3.489c-0.637 1.491-0.794 3.163-0.447 4.758-2.783-0.148-5.506-0.917-7.992-2.255s-4.679-3.217-6.438-5.513c-0.894 1.638-1.167 3.575-0.765 5.42s1.451 3.456 2.932 4.509c-1.112-0.037-2.199-0.356-3.173-0.928v0.092c-0.001 1.719 0.558 3.384 1.583 4.715s2.451 2.242 4.036 2.581c-1.030 0.299-2.111 0.343-3.159 0.128 0.447 1.478 1.318 2.771 2.49 3.698s2.588 1.442 4.048 1.473c-2.48 2.070-5.544 3.193-8.698 3.188-0.559-0.001-1.118-0.037-1.673-0.109 3.204 2.184 6.931 3.344 10.738 3.342z"></path>
</symbol>
</defs>
</svg>
